# xmcd
#
# Track frame offsets:
# 150
# 28685
# 39549
# 51225
# 70503
# 94051
# 107733
# 123966
# 141711
# 163009
# 176845
# 203786
#
# Disc length: 2974 seconds
#
#
# Revision: 0
# Processed by: cddbd v1.5.2PL0 Copyright (c) Steve Scherf et al.
# Submitted via: FreeRIP 2.53 
#
DISCID=ac0b9c0c
DTITLE=Thomas Nowak and Holger Seemann - Live auf Borkum
DYEAR=2003
DGENRE=Boogie Woogie
TTITLE0=Low Down Dog
TTITLE1=Blueberry Hill
TTITLE2=Great Balls Of Fire
TTITLE3=Sittin' In The Ya Ya
TTITLE4=Talk To Me Baby
TTITLE5=Hallelujah!
TTITLE6=Take The A Train
TTITLE7=Hi-Heel Sneakers
TTITLE8=Route 66
TTITLE9=Love Me Tender
TTITLE10=See You Later Alligator
TTITLE11=Everybody Needs Somebody
EXTD=www.fehnklang.de
EXTT0=
EXTT1=
EXTT2=
EXTT3=
EXTT4=
EXTT5=
EXTT6=
EXTT7=
EXTT8=
EXTT9=
EXTT10=
EXTT11=
PLAYORDER=
